<?xml version="1.0" standalone="no"?>
<!DOCTYPE svg PUBLIC "-//W3C//DTD SVG 20010904//EN"
 "http://www.w3.org/TR/2001/REC-SVG-20010904/DTD/svg10.dtd">
<svg version="1.0" xmlns="http://www.w3.org/2000/svg"
 width="512.000000pt" height="512.000000pt" viewBox="0 0 512.000000 512.000000"
 preserveAspectRatio="xMidYMid meet">
<metadata>
Created by potrace 1.11, written by Peter Selinger 2001-2013
</metadata>
<g transform="translate(0.000000,512.000000) scale(0.100000,-0.100000)"
fill="#000000" stroke="none">
<path d="M2516 4563 c-1 -1 -26 -3 -56 -4 -331 -10 -691 -138 -940 -332 -183
-142 -337 -342 -429 -555 -60 -136 -112 -325 -126 -452 -3 -30 -8 -68 -11 -85
-14 -77 -6 -417 12 -508 2 -12 6 -39 9 -62 27 -192 132 -463 241 -622 180
-262 446 -462 749 -562 l90 -29 48 -89 c91 -165 194 -292 327 -404 53 -45 223
-159 236 -159 4 0 35 -13 68 -29 214 -101 509 -137 786 -96 64 9 117 18 135
22 86 18 80 17 135 32 25 7 84 25 132 42 173 58 215 96 183 163 -22 46 -50 51
-160 26 -119 -26 -324 -22 -432 9 -217 63 -409 209 -509 386 -6 11 -17 30 -25
42 -7 12 -11 25 -7 28 3 3 45 16 94 30 269 71 508 212 690 405 29 30 63 69 75
85 13 17 26 32 29 35 21 18 106 162 148 250 112 237 162 473 164 775 1 211 -6
280 -49 475 -64 293 -191 529 -393 730 -191 191 -420 321 -690 391 -82 21 -90
22 -160 34 -25 4 -53 9 -63 11 -40 7 -296 22 -301 17z m274 -199 c171 -60 299
-182 399 -381 70 -140 126 -337 151 -528 6 -49 13 -103 16 -120 23 -161 23
-602 0 -820 -6 -52 -18 -149 -22 -170 -64 -351 -155 -559 -313 -715 -126 -124
-261 -181 -436 -183 -150 -2 -231 15 -338 70 -154 81 -278 237 -366 460 -40
102 -96 337 -106 450 -3 32 -8 69 -11 83 -22 123 -22 651 0 825 2 17 7 50 9
75 23 193 90 437 157 570 128 254 318 396 554 417 39 3 72 6 73 7 11 9 173
-20 233 -40z m-866 -96 c-5 -7 -27 -38 -49 -69 -89 -121 -173 -329 -220 -544
-50 -229 -67 -415 -67 -730 0 -319 16 -500 68 -740 43 -201 137 -430 228 -553
25 -34 46 -64 46 -66 0 -10 -190 89 -245 128 -339 237 -534 594 -571 1051 -40
473 78 907 321 1184 122 140 280 258 440 328 60 27 58 26 49 11z m1405 -53
c226 -118 416 -318 533 -563 24 -49 44 -93 45 -98 2 -5 14 -39 27 -76 13 -38
23 -68 21 -68 -2 0 3 -20 10 -44 7 -24 16 -68 20 -97 4 -30 9 -57 11 -60 7
-12 18 -175 18 -284 0 -210 -26 -388 -83 -562 -111 -340 -338 -604 -652 -759
-38 -19 -73 -34 -79 -34 -5 0 8 24 30 53 55 70 152 270 188 387 32 99 75 303
87 405 4 33 9 68 11 77 22 127 22 751 -2 871 -2 12 -6 46 -9 76 -12 124 -74
382 -111 468 -8 17 -14 34 -14 37 0 29 -104 217 -157 283 -18 23 -33 44 -33
47 0 9 46 -11 139 -59z m-973 -2922 c87 -8 296 -9 388 -2 l59 4 37 -72 c50
-94 138 -210 208 -274 51 -46 211 -159 226 -159 3 0 33 -13 65 -29 33 -16 62
-26 65 -23 4 3 6 0 6 -6 0 -13 -14 -14 -120 -14 -432 1 -778 194 -1016 567
-10 16 -14 26 -8 22 6 -3 47 -10 90 -14z"/>
</g>
</svg>
