<?xml version="1.0" encoding="UTF-8" standalone="no"?>
<!-- Created with Inkscape (http://www.inkscape.org/) -->

<svg
   xmlns:dc="http://purl.org/dc/elements/1.1/"
   xmlns:cc="http://creativecommons.org/ns#"
   xmlns:rdf="http://www.w3.org/1999/02/22-rdf-syntax-ns#"
   xmlns:svg="http://www.w3.org/2000/svg"
   xmlns="http://www.w3.org/2000/svg"
   xmlns:sodipodi="http://sodipodi.sourceforge.net/DTD/sodipodi-0.dtd"
   xmlns:inkscape="http://www.inkscape.org/namespaces/inkscape"
   width="32"
   height="32"
   viewBox="0 0 32 32.000001"
   id="svg2"
   version="1.1"
   inkscape:version="0.91 r13725"
   sodipodi:docname="favicon.svg"
   inkscape:export-filename="/home/gilles/tmp/favicon.png"
   inkscape:export-xdpi="1440"
   inkscape:export-ydpi="1440">
  <sodipodi:namedview
     id="base"
     pagecolor="#ffffff"
     bordercolor="#0c0a0a"
     borderopacity="1"
     inkscape:pageopacity="0"
     inkscape:pageshadow="2"
     inkscape:zoom="13.901428"
     inkscape:cx="24.572236"
     inkscape:cy="15.65715"
     inkscape:document-units="px"
     inkscape:current-layer="layer1"
     showgrid="false"
     units="px"
     inkscape:snap-global="true"
     inkscape:snap-center="true"
     showguides="true"
     inkscape:guide-bbox="true"
     inkscape:window-width="1920"
     inkscape:window-height="1080"
     inkscape:window-x="0"
     inkscape:window-y="0"
     inkscape:window-maximized="0"
     borderlayer="true"
     inkscape:snap-page="true" />
  <defs
     id="defs4" />
  <metadata
     id="metadata7">
    <rdf:RDF>
      <cc:Work
         rdf:about="">
        <dc:format>image/svg+xml</dc:format>
        <dc:type
           rdf:resource="http://purl.org/dc/dcmitype/StillImage" />
        <dc:title></dc:title>
      </cc:Work>
    </rdf:RDF>
  </metadata>
  <g
     inkscape:label="Layer 1"
     inkscape:groupmode="layer"
     id="layer1"
     transform="translate(0,-1020.3622)">
    <g
       transform="matrix(12.446812,0,0,12.446812,-154.91254,976.0912)"
       id="g4204"
       style="fill:#b92b27;fill-opacity:1;stroke:#ffffff">
      <g
         style="font-style:normal;font-variant:normal;font-weight:normal;font-stretch:normal;letter-spacing:normal;word-spacing:normal;text-anchor:start;fill:#b92b27;fill-opacity:1;fill-rule:evenodd;stroke:#ffffff;stroke-width:0.08034186;stroke-linecap:butt;stroke-linejoin:miter;stroke-miterlimit:10.43299961;stroke-dasharray:none;stroke-dashoffset:0;stroke-opacity:1"
         word-spacing="normal"
         letter-spacing="normal"
         font-size-adjust="none"
         font-stretch="normal"
         font-weight="normal"
         font-variant="normal"
         font-style="normal"
         stroke-miterlimit="10.433"
         xml:space="preserve"
         transform="matrix(0.04571429,0,0,-0.04571429,-8,24)"
         id="g4206"><path
           style="fill:#b92b27;fill-opacity:1;stroke:#ffffff;stroke-width:0"
           inkscape:connector-curvature="0"
           id="path4208"
           d="m 479.81,405.55 0.66,0.15 0.65,0.17 0.64,0.2 0.64,0.22 0.63,0.24 0.62,0.27 0.61,0.3 0.59,0.32 0.59,0.35 0.57,0.37 0.56,0.4 0.54,0.42 0.52,0.45 0.51,0.47 0.49,0.5 0.46,0.53 0.45,0.56 0.43,0.58 0.4,0.6 0.38,0.64 0.36,0.66 0.33,0.69 0.3,0.71 0.28,0.74 0.25,0.77 0.21,0.8 0.19,0.83 0.16,0.85 0.12,0.88 0.09,0.91 0.05,0.94 0.02,0.97 -1.74,0.05 c 0,-10.16 -6.18,-13.85 -9.17,-15 3.09,3.64 3.89,9.46 3.89,14.95 l -1.75,0.05 c 0,-5.98 -0.99,-16.29 -8.96,-16.29 l 0,-1.75 c 0.24,0 1.29,0 2.69,0.15 1.34,-3.13 3.68,-5.03 6.17,-6.02 0.5,-0.2 0.55,-0.2 0.55,-0.25 0,-0.1 -0.9,-0.1 -1.54,-0.1 -4.23,0 -8.57,1.99 -11.16,6.47 l 0,0 c 1.39,-0.25 3.24,-0.25 3.29,-0.25 l 0,1.75 0,0 c -8.07,0 -8.97,10.56 -8.97,16.24 0,5.97 1,16.28 8.97,16.28 8.07,0 8.96,-10.55 8.96,-16.23 l 1.75,-0.05 c 0,4.88 -0.6,11.1 -3.84,14.89 l 0.05,0.05 c 3.34,-1.25 9.07,-5.23 9.07,-14.89 l 1.74,-0.05 c 0,12.55 -8.82,18.03 -17.73,18.03 -9.12,0 -17.74,-5.73 -17.74,-17.98 l 1.75,-0.05 c 0,10.16 6.17,13.84 9.06,14.94 l 0.05,-0.05 c -3.04,-3.54 -3.83,-9.36 -3.83,-14.84 0,-4.89 0.6,-11.11 3.88,-15 -3.43,1.3 -9.16,5.28 -9.16,14.95 l -1.75,0.05 c 0,-10.66 6.38,-15.75 12.26,-17.29 2.24,-5.13 7.17,-8.72 13.35,-8.72 2.49,0 5.23,0.5 7.82,1.5 0.89,0.35 1.39,0.54 1.39,1.14 0,0.6 -0.44,0.9 -0.84,0.9 -0.1,0 -0.15,0 -0.5,-0.1 -1.4,-0.35 -1.94,-0.35 -2.74,-0.35 -4.58,0 -7.42,2.89 -8.57,5.38 z" /></g>    </g>
  </g>
</svg>
